<svg xmlns="http://www.w3.org/2000/svg" viewBox="0 0 256 256">
  <title>logo</title>
  <g>
    <polygon points="40.3 68.2 40.3 41.2 65.3 41.2 65.3 26.2 25.3 26.2 25.3 68.2 40.3 68.2"/>
    <polygon points="180.3 41.2 210.3 41.2 210.3 68.2 225.3 68.2 225.3 26.2 180.3 26.2 180.3 41.2"/>
    <polygon points="65.3 211.2 40.3 211.2 40.3 183.2 25.3 183.2 25.3 226.2 65.3 226.2 65.3 211.2"/>
    <polygon points="210.3 183.2 210.3 211.2 180.3 211.2 180.3 226.2 225.3 226.2 225.3 183.2 210.3 183.2"/>
  </g>
  <path d="M131.5,191.4q-29.4,0-47.8-18.4T65.2,126.2q0-27.2,18.9-46.1t47.2-19c10.9,0,20.1,1.4,27.7,4.2a74.9,74.9,0,0,1,21.8,13L163.3,99.4A60.4,60.4,0,0,0,148,89.7c-4.9-2.1-10.8-3.1-17.6-3.1-10.1,0-18.6,3.9-25.7,11.6a40.4,40.4,0,0,0-10.5,28c0,11.5,3.6,21.1,10.7,28.6s16.3,11.4,27.5,11.4,19-2.5,26.1-7.6v-18H130.6V116.7h54.7v54.7C169.6,184.7,151.6,191.4,131.5,191.4Z"/>
</svg>
