<svg height="498pt" viewBox="0 -33 498.44545 498" width="498pt" xmlns="http://www.w3.org/2000/svg"><path d="m495.074219 165.34375-72.851563-51.644531c-1.351562-.957031-2.964844-1.46875-4.621094-1.46875l-61.398437-.074219-.710937-103.988281c-.015626-2.125-.871094-4.15625-2.386719-5.644531-1.511719-1.492188-3.554688-2.316407-5.679688-2.300782l-339.710937 2.832032c-2.089844.027343-4.078125.886718-5.527344 2.390624-1.449219 1.503907-2.234375 3.523438-2.18359375 5.609376v348.535156c-.19921825 39.675781 31.78906275 72.011718 71.46484375 72.238281h.222656c1.445313-.105469 2.882813-.289063 4.3125-.542969v.542969h288v-.472656c38.441406-1.738281 68.777344-33.292969 69-71.773438v-41.472656c.054688-4.457031-3.472656-8.140625-7.929687-8.28125h-67.359375l-.488282-78.378906h60.378907c1.648437.007812 3.261719-.492188 4.617187-1.4375l72.851563-51.628907c2.113281-1.496093 3.371093-3.925781 3.371093-6.519531 0-2.589843-1.257812-5.019531-3.371093-6.515625zm-300.070313-6.234375 215 .355469v24.816406l-215 .355469zm0-16v-15.148437l215 .257812v15.246094zm-16 72.691406-43 .050781v-87.960937l43 .050781zm16-15.164062 215-.355469v15.246094l-215 .257812zm222 158.9375c.03125 30.921875-24.925781 56.0625-55.851562 56.253906h-244.3125c1.964844-2 4.097656-3.5 5.917968-5.3125 13.578126-13.527344 21.222657-31.898437 21.246094-51.066406v-33.621094h273zm-75.289062-49.746094h-206.179688c-4.417968 0-7.53125 3.863281-7.53125 8.28125v41.347656c-.15625 31.046875-25.273437 56.1875-56.324218 56.371094h-.199219c-30.847657-.222656-55.679688-25.398437-55.476563-56.246094v-340.59375l323.765625-2.699219.542969 95.820313-212.785156-.28125h-.007813c-2.050781.011719-4.007812.867187-5.414062 2.367187-1.429688 1.535157-2.1875 3.585938-2.097657 5.683594v103.984375c-.089843 2.085938.667969 4.121094 2.097657 5.644531 1.410156 1.484376 3.367187 2.324219 5.414062 2.320313h.007813l213.703125-.378906zm84.289062-101.789063v-72.335937l51.015625 36.167969zm0 0"/></svg>