<?xml version="1.0" encoding="UTF-8"?>
<svg width="256px" height="256px" viewBox="0 0 256 256" version="1.1" xmlns="http://www.w3.org/2000/svg" xmlns:xlink="http://www.w3.org/1999/xlink">
    <!-- Generator: Sketch 50 (54983) - http://www.bohemiancoding.com/sketch -->
    <title>Artboard</title>
    <desc>Created with Sketch.</desc>
    <defs></defs>
    <g id="Artboard" stroke="none" stroke-width="1" fill="none" fill-rule="evenodd">
        <g id="Group-4" transform="translate(25.000000, 25.000000)">
            <circle id="Oval-2" fill="#000000" cx="103" cy="103" r="103"></circle>
            <path d="M102.5,37.5 L102.5,160.5" id="Line" stroke="#FFFFFF" stroke-width="4" stroke-linecap="round"></path>
            <rect id="Rectangle" fill="#FFFFFF" x="109" y="37" width="64" height="33" rx="4"></rect>
            <rect id="Rectangle" fill="#FFFFFF" x="32" y="70" width="64" height="33" rx="4"></rect>
            <rect id="Rectangle" fill="#FFFFFF" x="32" y="107" width="64" height="30" rx="4"></rect>
            <rect id="Rectangle" fill="#FFFFFF" x="32" y="139" width="64" height="15" rx="4"></rect>
            <g id="Group" transform="translate(116.000000, 43.000000)" fill="#9B9B9B">
                <rect id="Rectangle-2" x="0" y="0" width="50" height="4" rx="2"></rect>
                <rect id="Rectangle-2" x="0" y="7" width="50" height="4" rx="2"></rect>
                <rect id="Rectangle-2" x="0" y="14" width="25" height="4" rx="2"></rect>
            </g>
            <g id="Group" transform="translate(39.000000, 78.000000)" fill="#9B9B9B">
                <rect id="Rectangle-2" x="0" y="0" width="50" height="4" rx="2"></rect>
                <rect id="Rectangle-2" x="0" y="7" width="50" height="4" rx="2"></rect>
                <rect id="Rectangle-2" x="0" y="14" width="25" height="4" rx="2"></rect>
            </g>
            <g id="Group" transform="translate(39.000000, 112.000000)" fill="#9B9B9B">
                <rect id="Rectangle-2" x="0" y="0" width="50" height="4" rx="2"></rect>
                <rect id="Rectangle-2" x="0" y="7" width="50" height="4" rx="2"></rect>
                <rect id="Rectangle-2" x="0" y="14" width="25" height="4" rx="2"></rect>
                <rect id="Rectangle-2" x="13" y="31" width="37" height="4" rx="2"></rect>
            </g>
            <g id="Group-2" transform="translate(98.000000, 43.000000)" fill="#FFFFFF" stroke="#000000">
                <circle id="Oval" cx="4.5" cy="44.5" r="4.5"></circle>
                <circle id="Oval" cx="4.5" cy="4.5" r="4.5"></circle>
            </g>
            <rect id="Rectangle-3" fill="#4A4A4A" x="39" y="141" width="10" height="10" rx="3"></rect>
            <g id="Group-3" transform="translate(42.000000, 142.000000)" stroke="#FFFFFF">
                <polyline id="Path-2" points="0 4.5 2 6.5 4 4.5"></polyline>
                <path d="M2,0 L2,6" id="Path-3"></path>
            </g>
        </g>
    </g>
</svg>