<?xml version="1.0" encoding="utf-8"?>
<!-- Generator: Adobe Illustrator 22.0.1, SVG Export Plug-In . SVG Version: 6.00 Build 0)  -->
<svg version="1.1" id="Слой_1" xmlns="http://www.w3.org/2000/svg" xmlns:xlink="http://www.w3.org/1999/xlink" x="0px" y="0px"
	 viewBox="0 0 824.8 277.8" style="enable-background:new 0 0 824.8 277.8;" xml:space="preserve">
<style type="text/css">
	.st0{fill:none;stroke:#000000;stroke-width:2;stroke-miterlimit:10;}
	.st1{fill:#FFFFFF;stroke:#000000;stroke-miterlimit:10;}
	.st2{fill:none;stroke:#000000;stroke-miterlimit:10;}
	.st3{fill:none;}
	.st4{font-family:'HelveticaNeue';}
	.st5{font-size:12px;}
	.st6{fill:#FFFFFF;stroke:#000000;stroke-width:2;stroke-miterlimit:10;}
	.st7{fill:none;stroke:#000000;stroke-width:9;stroke-miterlimit:10;}
	.st8{fill:none;stroke:#000000;stroke-width:3;stroke-miterlimit:10;}
</style>
<g>
	<g>
		<line class="st0" x1="138" y1="98.4" x2="205.1" y2="99.3"/>
		<g>
			<polygon points="202,109.2 219.4,99.4 202.3,89.2 			"/>
		</g>
	</g>
</g>
<g>
	<path class="st1" d="M102.1,154.4H41.7c-6.5,0-11.7-5.2-11.7-11.7V55.1c0-6.5,5.2-11.7,11.7-11.7h60.4c6.5,0,11.7,5.2,11.7,11.7
		v87.5C113.8,149.1,108.6,154.4,102.1,154.4z"/>
	<line class="st2" x1="40" y1="63.4" x2="70" y2="63.4"/>
	<line class="st2" x1="40" y1="80.6" x2="100" y2="80.6"/>
	<line class="st2" x1="40" y1="98.4" x2="100" y2="98.4"/>
</g>
<rect x="30" y="196" class="st3" width="329.7" height="145.5"/>
<text transform="matrix(1 0 0 1 30.0362 204.5806)"><tspan x="0" y="0" class="st4 st5">заполняйте </tspan><tspan x="0" y="14.4" class="st4 st5">короткий </tspan><tspan x="0" y="28.8" class="st4 st5">бриф</tspan></text>
<g>
	<path class="st1" d="M324.6,131.3h-75.5c-3,0-5.4-2.4-5.4-5.4V71.9c0-3,2.4-5.4,5.4-5.4h75.5c3,0,5.4,2.4,5.4,5.4v53.9
		C330.1,128.8,327.6,131.3,324.6,131.3z"/>
	<circle cx="286.9" cy="98.9" r="4.3"/>
	<circle cx="299.5" cy="98.9" r="3"/>
	<circle cx="274.4" cy="98.9" r="2.2"/>
</g>
<g>
	<g>
		<line class="st0" x1="345.5" y1="98.4" x2="412.6" y2="99.3"/>
		<g>
			<polygon points="409.6,109.2 427,99.4 409.8,89.2 			"/>
		</g>
	</g>
</g>
<g>
	<g>
		<g>
			<path class="st0" d="M439.6,95.8c0-31.6,25.6-57.1,57.1-57.1c26.6,0,49,18.2,55.3,42.9"/>
			<g>
				<polygon points="541.5,80.2 553.8,95.8 561.2,77.3 				"/>
			</g>
		</g>
	</g>
	<g>
		<g>
			<path class="st0" d="M554,102c0,31.6-25.6,57.1-57.1,57.1c-26.6,0-49-18.2-55.3-42.9"/>
			<g>
				<polygon points="452.1,117.6 439.7,102 432.4,120.5 				"/>
			</g>
		</g>
	</g>
	<rect x="469.7" y="80.1" class="st0" width="41.6" height="41.6"/>
	<ellipse class="st6" cx="511.6" cy="119" rx="12.9" ry="5.9"/>
	<circle cx="511.6" cy="119" r="4.1"/>
	<path class="st0" d="M477.3,97.9c8.5,10.6,16.9,13.8,16.9,13.8"/>
	<path class="st0" d="M484.7,95.8c0,0,3.2,8.1,9.5,9"/>
	<path class="st0" d="M490.5,97.9c0,0,3.4,3,6.2,2.4"/>
</g>
<g>
	<g>
		<line class="st0" x1="582" y1="98.4" x2="649.1" y2="99.3"/>
		<g>
			<polygon points="646.1,109.2 663.5,99.4 646.3,89.2 			"/>
		</g>
	</g>
</g>
<g>
	<path class="st1" d="M744.2,154.4h-60.4c-6.5,0-11.7-5.2-11.7-11.7V55.1c0-6.5,5.2-11.7,11.7-11.7h60.4c6.5,0,11.7,5.2,11.7,11.7
		v87.5C755.9,149.1,750.7,154.4,744.2,154.4z"/>
	<g>
		<g>
			<g>
				<rect x="686.5" y="68.3" class="st0" width="11.2" height="11.2"/>
				<line class="st7" x1="705" y1="73.9" x2="736.7" y2="73.9"/>
			</g>
			<polyline class="st8" points="682.7,69.6 690.5,75.9 699.7,63.6 			"/>
		</g>
		<g>
			<g>
				<rect x="686.5" y="88.2" class="st0" width="11.2" height="11.2"/>
				<line class="st7" x1="705" y1="93.7" x2="736.7" y2="93.7"/>
			</g>
			<polyline class="st8" points="682.7,89.5 690.5,95.8 699.7,83.5 			"/>
		</g>
		<g>
			<g>
				<rect x="686.5" y="108" class="st0" width="11.2" height="11.2"/>
				<line class="st7" x1="705" y1="113.6" x2="736.8" y2="113.6"/>
			</g>
			<polyline class="st8" points="682.7,109.4 690.5,115.7 699.7,103.3 			"/>
		</g>
	</g>
</g>
<rect x="243.7" y="196" class="st3" width="329.7" height="145.5"/>
<text transform="matrix(1 0 0 1 243.7311 204.5806)"><tspan x="0" y="0" class="st4 st5">мы уточняем детали </tspan><tspan x="0" y="14.4" class="st4 st5">при необходимости </tspan><tspan x="0" y="28.8" class="st4 st5">созваниваемся</tspan><tspan x="0" y="43.2" class="st4 st5">предоплата 50%</tspan></text>
<rect x="438.6" y="196" class="st3" width="329.7" height="145.5"/>
<text transform="matrix(1 0 0 1 438.6209 204.5806)"><tspan x="0" y="0" class="st4 st5">присылаем эскизы </tspan><tspan x="0" y="14.4" class="st4 st5">через личный кабинет: </tspan><tspan x="0" y="28.8" class="st4 st5">эскиз - подтверждение от вас.</tspan></text>
<rect x="672.1" y="196" class="st3" width="164.8" height="72.7"/>
<text transform="matrix(1 0 0 1 672.1154 204.5806)"><tspan x="0" y="0" class="st4 st5">Присылаем конечный </tspan><tspan x="0" y="14.4" class="st4 st5">вариант работы.</tspan><tspan x="0" y="28.8" class="st4 st5">Оплата 50%. </tspan><tspan x="0" y="43.2" class="st4 st5">Работаем дальше</tspan></text>
</svg>
